<svg xmlns:dc="http://purl.org/dc/elements/1.1/" xmlns:cc="http://creativecommons.org/ns#" xmlns:rdf="http://www.w3.org/1999/02/22-rdf-syntax-ns#" xmlns:svg="http://www.w3.org/2000/svg" xmlns="http://www.w3.org/2000/svg" xmlns:xlink="http://www.w3.org/1999/xlink" id="svg530093" viewBox="0 0 1024 768" height="768px" width="1024px" version="1.1">
  <metadata id="metadata530099">
    <rdf:rdf>
      <cc:work rdf:about="">
        <dc:format>image/svg+xml</dc:format>
        <dc:type rdf:resource="http://purl.org/dc/dcmitype/StillImage"></dc:type>
      </cc:work>
    </rdf:rdf>
  </metadata>
  <defs id="defs530097"></defs>
  <linearGradient spreadMethod="pad" y2="30%" x2="-10%" y1="120%" x1="30%" id="3d_gradient2-logo-a9b9a0aa-d5b8-4690-9ef0-0b2777b2ac6f">
    <stop id="stop530074" stop-opacity="1" stop-color="#ffffff" offset="0%"></stop>
    <stop id="stop530076" stop-opacity="1" stop-color="#000000" offset="100%"></stop>
  </linearGradient>
  <linearGradient gradientTransform="rotate(-30)" spreadMethod="pad" y2="30%" x2="-10%" y1="120%" x1="30%" id="3d_gradient3-logo-a9b9a0aa-d5b8-4690-9ef0-0b2777b2ac6f">
    <stop id="stop530079" stop-opacity="1" stop-color="#ffffff" offset="0%"></stop>
    <stop id="stop530081" stop-opacity="1" stop-color="#cccccc" offset="50%"></stop>
    <stop id="stop530083" stop-opacity="1" stop-color="#000000" offset="100%"></stop>
  </linearGradient>
  <g id="logo-group">
    <image xlink:href="" id="container" x="272" y="144" width="480" height="480" style="display: none;" transform="translate(0 0)"></image>
    <g id="logo-center" transform="translate(1.1368683772161603e-13 0)">
      <image xlink:href="" id="icon_container" style="display: none;" x="0" y="0"></image>
      <g id="slogan" style="font-style:normal;font-weight:400;font-size:32px;line-height:1;font-family:'Roboto Slab';font-variant-ligatures:none;text-align:center;text-anchor:middle" transform="translate(0 0)"></g>
      <g id="title" style="font-style:normal;font-weight:normal;font-size:72px;line-height:1;font-family:'Brandmark Sans 16 Color Shadow';font-variant-ligatures:normal;text-align:center;text-anchor:middle" transform="translate(0 0)">
        <g id="path530102" aria-label="D" transform="translate(0 303.82588) translate(208.72344480000004 59.288000000000004) scale(0.83) translate(-223.17987 50.4)"> <path class="c1" d="M105,74.8h-9.6H81l-1,10.8l0,0l-3.5,39.6h14.4l0,0h9.1c6.6,0,23.5-6,23.5-28.6 C123.5,86.4,117,74.8,105,74.8z M97.2,114.4h-5.4l2.6-28.8h5.6c3.2,0,9.1,3.4,9.1,12.2C109.1,106.6,104.1,114.4,97.2,114.4z" transform="translate(146.67987 -125.2)" stroke-width="0" stroke-linejoin="miter" stroke-miterlimit="2" fill="#5865f2" stroke="#5865f2"></path> <linearGradient id="84c67ca2-f5ea-4295-9992-a9c79799234b" gradientUnits="userSpaceOnUse" x1="85.45" y1="-481.60001" x2="85.45" y2="-521.20001" gradientTransform="matrix(1 0 0 -1 0 -396)"> <stop offset="0.06138" style="stop-color:#000000;stop-opacity:0.8"></stop> <stop offset="0.2125" style="stop-color:#000000;stop-opacity:0"></stop> </linearGradient> <path class="highlight" fill="url(#84c67ca2-f5ea-4295-9992-a9c79799234b)" d="M80,85.6h14.4l-3.5,39.6H76.5L80,85.6z" transform="translate(146.67987 -125.2)" stroke-width="0" stroke-linejoin="miter" stroke-miterlimit="2" opacity="0.7"></path> </g>
        <g id="path530104" aria-label="C" transform="translate(0 303.82588) translate(262.11835740000004 58.690400000000004) scale(0.83) translate(-272.51109 51.12)"> <path class="c1" d="M107.3,74.1c5.7,0,10.6,1.8,14.3,4.8l-1.2,13.7c-3.9-2.6-9.2-5.3-14.4-5.3c-0.1,0-0.3,0-0.4,0 c-8.5,0.2-13.3,7.2-13.3,14.2c0,0.1,0,0.2,0,0.3c0.1,3.5,2.1,11.1,11.5,11.1c5,0,10.8-2.6,15.3-5.2l-1.2,13.6 c-4.2,3-9.4,4.7-15.1,4.7c-15.1,0-24.7-10.5-24.5-23.9v-0.1c0-0.6,0-1.3,0.1-1.9C79.7,85.7,91.5,74.1,107.3,74.1z" transform="translate(194.214156 -125.22)" stroke-width="0" stroke-linejoin="miter" stroke-miterlimit="2" fill="#5865f2" stroke="#5865f2"></path> <linearGradient id="e0fe51f9-a79d-4e0c-a76d-c80137723b82" gradientUnits="userSpaceOnUse" x1="92.05" y1="-482.40619" x2="92.05" y2="-497.61871" gradientTransform="matrix(1 0 0 -1 0 -396)"> <stop offset="0.1417" style="stop-color:#000000;stop-opacity:0.8"></stop> <stop offset="0.4769" style="stop-color:#000000;stop-opacity:0.4202"></stop> <stop offset="0.9802" style="stop-color:#000000;stop-opacity:0"></stop> </linearGradient> <path class="highlight" fill="url(#e0fe51f9-a79d-4e0c-a76d-c80137723b82)" d="M92.4,101.4c0,0.1,0,0.2,0,0.3l-14,0.3l0,0v-0.1l0,0c1-10.3,9.5-19.1,27.3-14.6l0,0 C97.1,87.5,92.4,94.5,92.4,101.4z" transform="translate(194.214156 -125.22)" stroke-width="0" stroke-linejoin="miter" stroke-miterlimit="2" opacity="0.7"></path> </g>
        <g id="path530106" aria-label="F" transform="translate(0 303.82588) translate(334.1182926999999 59.288000000000004) scale(0.83) translate(-344.258 50.4)"> <path class="c1" d="M98.7,74.8h21.5l-1,10.8H97.7l-0.8,9h14.3l-1,10.8H96l-1.8,19.8H79.8l3.5-39.6l0,0l1-10.8L98.7,74.8 L98.7,74.8z" transform="translate(264.458 -125.2)" stroke-width="0" stroke-linejoin="miter" stroke-miterlimit="2" fill="#5865f2" stroke="#5865f2"></path> <linearGradient id="ff99adf3-b29c-4d3f-9bd4-52748b1ca058" gradientUnits="userSpaceOnUse" x1="88.75" y1="-481.60001" x2="88.75" y2="-521.20001" gradientTransform="matrix(1 0 0 -1 0 -396)"> <stop offset="0.06138" style="stop-color:#000000;stop-opacity:0.8"></stop> <stop offset="0.2125" style="stop-color:#000000;stop-opacity:0"></stop> </linearGradient> <path class="highlight" fill="url(#ff99adf3-b29c-4d3f-9bd4-52748b1ca058)" d="M83.3,85.6h14.4l-3.5,39.6H79.8L83.3,85.6z" transform="translate(264.458 -125.2)" stroke-width="0" stroke-linejoin="miter" stroke-miterlimit="2" opacity="0.7"></path> </g>
        <g id="path530108" aria-label="R" transform="translate(0 303.82588) translate(379.2495426999999 59.288000000000004) scale(0.83) translate(-383.633 50.4)"> <path class="c1" d="M123.1,89.5c0-7.3-5.9-14.8-14.2-14.8H95.8h-4.4h-10l-4.5,50.4h14.4l1.6-18.1h1.9l8.6,18.1h16.7l-9.2-19.3 C118.9,103.4,123.1,97.2,123.1,89.5z M104.1,85.6c2.5,0,4.6,2.6,4.6,4.8s-1.8,6-5.8,6h-9l1-10.7h9.2V85.6z" transform="translate(306.733 -125.1)" stroke-width="0" stroke-linejoin="miter" stroke-miterlimit="2" fill="#5865f2" stroke="#5865f2"></path> <linearGradient id="99153062-6a54-49c4-af57-d5399df5ed8e" gradientUnits="userSpaceOnUse" x1="107.45" y1="-501.89999" x2="107.45" y2="-521.20001" gradientTransform="matrix(1 0 0 -1 0 -396)"> <stop offset="0.2309" style="stop-color:#000000;stop-opacity:0.8"></stop> <stop offset="0.4058" style="stop-color:#000000;stop-opacity:0.4228"></stop> <stop offset="0.6408" style="stop-color:#000000;stop-opacity:0"></stop> </linearGradient> <path class="highlight" fill="url(#99153062-6a54-49c4-af57-d5399df5ed8e)" d="M120.1,125.2h-16.7l-8.6-18.1h7.3c3.3,0,6.2-0.4,8.7-1.2L120.1,125.2z" transform="translate(306.733 -125.1)" stroke-width="0" stroke-linejoin="miter" stroke-miterlimit="2" opacity="0.7"></path> </g>
        <g id="path530110" aria-label="A" transform="translate(0 303.82588) translate(428.51824309999995 59.288000000000004) scale(0.83) translate(-427.99288 50.4)"> <path class="c1" d="M107.9,74.8H101h-6.5l-19.8,50.4H90l3.2-8.9h15.5l1.6,8.9h15l-10.8-50.4C114.5,74.8,107.9,74.8,107.9,74.8z M97,105.5l6.4-18l3.3,18H97z" transform="translate(353.29288 -125.2)" stroke-width="0" stroke-linejoin="miter" stroke-miterlimit="2" fill="#5865f2" stroke="#5865f2"></path> <linearGradient id="f1abab5d-fe14-4ec1-ae2f-2f8e1cebabec" gradientUnits="userSpaceOnUse" x1="85.41597" y1="713.57141" x2="112.23496" y2="706.38531" gradientTransform="matrix(1 0 0 1 0 -598)"> <stop offset="0.2304" style="stop-color:#000000;stop-opacity:0.8"></stop> <stop offset="0.6213" style="stop-color:#000000;stop-opacity:0"></stop> </linearGradient> <path class="highlight" fill="url(#f1abab5d-fe14-4ec1-ae2f-2f8e1cebabec)" d="M108.7,116.3H93.2l3.8-10.8h9.7L108.7,116.3z" transform="translate(353.29288 -125.2)" stroke-width="0" stroke-linejoin="miter" stroke-miterlimit="2" opacity="0.7"></path> </g>
        <g id="path530112" aria-label="M" transform="translate(0 303.82588) translate(485.5025072999999 59.288000000000004) scale(0.83) translate(-481.64862 50.4)"> <path class="c1" d="M117.4,74.8h11.1l-4.5,50.4h-14.4l2.9-32.9l-9.2,32.9h-7h-3.8l-3.6-33l-3,33H71.5L76,74.8h11h3.5h7.9 l3.1,31.9l8.9-31.9h3.7H117.4z" transform="translate(410.14862 -125.2)" stroke-width="0" stroke-linejoin="miter" stroke-miterlimit="2" fill="#5865f2" stroke="#5865f2"></path> <linearGradient id="a261372b-d73a-44b6-87ee-1d41f3e99437" gradientUnits="userSpaceOnUse" x1="88.24332" y1="-495.36948" x2="105.42491" y2="-496.87271" gradientTransform="matrix(1 0 0 -1 0 -396)"> <stop offset="0.0655" style="stop-color:#000000;stop-opacity:0.8"></stop> <stop offset="0.4267" style="stop-color:#000000;stop-opacity:0"></stop> </linearGradient> <path class="highlight" fill="url(#a261372b-d73a-44b6-87ee-1d41f3e99437)" d="M103.3,125.2H92.5l-3.6-33l1.6-17.4h7.9L103.3,125.2z" transform="translate(410.14862 -125.2)" stroke-width="0" stroke-linejoin="miter" stroke-miterlimit="2" opacity="0.7"></path> </g>
        <g id="path530114" aria-label="E" transform="translate(0 303.82588) translate(546.8576676999999 59.288000000000004) scale(0.83) translate(-540.5705 50.4)"> <path class="c1" d="M98.7,74.8h21.5l-1,10.8H97.7l-0.8,9h14.3l-1,10.8H96l-0.8,9h21.7l-1,10.8H94.2l0,0H79.8l3.5-39.6l0.9-10.8 l0,0L98.7,74.8L98.7,74.8z" transform="translate(460.7705 -125.2)" stroke-width="0" stroke-linejoin="miter" stroke-miterlimit="2" fill="#5865f2" stroke="#5865f2"></path> <linearGradient id="a9452e6a-19ed-42ee-ba7e-dfe9e9f2069d" gradientUnits="userSpaceOnUse" x1="88.75" y1="-481.60001" x2="88.75" y2="-521.20001" gradientTransform="matrix(1 0 0 -1 0 -396)"> <stop offset="0.06138" style="stop-color:#000000;stop-opacity:0.8"></stop> <stop offset="0.2125" style="stop-color:#000000;stop-opacity:0"></stop> </linearGradient> <path class="highlight" fill="url(#a9452e6a-19ed-42ee-ba7e-dfe9e9f2069d)" d="M83.3,85.6h14.4l-3.5,39.6H79.8L83.3,85.6z" transform="translate(460.7705 -125.2)" stroke-width="0" stroke-linejoin="miter" stroke-miterlimit="2" opacity="0.7"></path> </g>
        <g id="path530116" aria-label="W" transform="translate(0 303.82588) translate(594.1720251999998 59.288000000000004) scale(0.83) translate(-582.57575 50.4)"> <path class="c1" d="M121.4,74.8h15.1l-18.1,50.4h-8.9h-4.8h-6.2L96.8,113l-4.2,12.2h-6.3h-4.5h-9l-9.4-50.4h15l6.4,40.8 l7.7-24.9h1h10.8h0.3l3.4,24.3L121.4,74.8z" transform="translate(519.17575 -125.2)" stroke-width="0" stroke-linejoin="miter" stroke-miterlimit="2" fill="#5865f2" stroke="#5865f2"></path> <linearGradient id="daf634e7-3514-4d97-9a76-75d1f2512f3d" gradientUnits="userSpaceOnUse" x1="83.62997" y1="-505.49048" x2="107.00418" y2="-501.36896" gradientTransform="matrix(1 0 0 -1 0 -396)"> <stop offset="0.00926" style="stop-color:#000000;stop-opacity:0.8"></stop> <stop offset="0.1829" style="stop-color:#000000;stop-opacity:0.4228"></stop> <stop offset="0.4477" style="stop-color:#000000;stop-opacity:0"></stop> </linearGradient> <path class="highlight" fill="url(#daf634e7-3514-4d97-9a76-75d1f2512f3d)" d="M104.4,90.7l-11.7,34.5h-6.3l-1.5-9.7l7.7-24.9h11.8V90.7z" transform="translate(519.17575 -125.2)" stroke-width="0" stroke-linejoin="miter" stroke-miterlimit="2" opacity="0.7"></path> </g>
        <g id="path530118" aria-label="O" transform="translate(0 303.82588) translate(664.7073009999997 58.690400000000004) scale(0.83) translate(-652.55801 51.12)"> <path class="c1" d="M102.3,74.1c-14.7,0-27.6,11.6-28.9,25.9c-0.1,0.7-0.1,1.3-0.1,2l0,0l0,0c-0.1,13.4,10.4,23.9,24.5,23.9 c14.7,0,27.6-11.6,28.9-25.9C127.9,85.7,117,74.1,102.3,74.1z M111.9,100c-0.7,8.3-6.7,15.1-13.3,15.1c-6.2,0-10.7-5.9-10.7-13.5 l0,0c0-0.1,0-0.3,0-0.4s0-0.1,0-0.2c0-0.3,0-0.7,0.1-1.1l0,0c0.7-8.3,6.7-15.1,13.3-15.1S112.6,91.7,111.9,100z" transform="translate(579.258718 -125.22)" stroke-width="0" stroke-linejoin="miter" stroke-miterlimit="2" fill="#5865f2" stroke="#5865f2"></path> <linearGradient id="0519e754-2b98-443d-8ac1-4704d8472b62" gradientUnits="userSpaceOnUse" x1="87.3" y1="-480.38568" x2="87.3" y2="-497.56622" gradientTransform="matrix(1 0 0 -1 0 -396)"> <stop offset="0.1417" style="stop-color:#000000;stop-opacity:0.8"></stop> <stop offset="0.4769" style="stop-color:#000000;stop-opacity:0.4202"></stop> <stop offset="0.9802" style="stop-color:#000000;stop-opacity:0"></stop> </linearGradient> <path class="highlight" fill="url(#0519e754-2b98-443d-8ac1-4704d8472b62)" d="M87.9,101.7L73.3,102v-0.1c1-10.3,11.3-21.2,28-17l0,0c-6.6,0-12.5,6.8-13.3,15.1 c0,0.4,0,0.7-0.1,1.1c0,0.1,0,0.1,0,0.2C87.9,101.4,87.9,101.5,87.9,101.7C87.9,101.6,87.9,101.7,87.9,101.7z" transform="translate(579.258718 -125.22)" stroke-width="0" stroke-linejoin="miter" stroke-miterlimit="2" opacity="0.7"></path> </g>
        <g id="path530120" aria-label="R" transform="translate(0 303.82588) translate(723.2197030999997 59.288000000000004) scale(0.83) translate(-708.05488 50.4)"> <path class="c1" d="M123.1,89.5c0-7.3-5.9-14.8-14.2-14.8H95.8h-4.4h-10l-4.5,50.4h14.4l1.6-18.1h1.9l8.6,18.1h16.7l-9.2-19.3 C118.9,103.4,123.1,97.2,123.1,89.5z M104.1,85.6c2.5,0,4.6,2.6,4.6,4.8s-1.8,6-5.8,6h-9l1-10.7h9.2V85.6z" transform="translate(631.15488 -125.1)" stroke-width="0" stroke-linejoin="miter" stroke-miterlimit="2" fill="#5865f2" stroke="#5865f2"></path> <linearGradient id="063e27d5-b6d4-4c34-89f0-2e1c6ac33332" gradientUnits="userSpaceOnUse" x1="107.45" y1="-501.89999" x2="107.45" y2="-521.20001" gradientTransform="matrix(1 0 0 -1 0 -396)"> <stop offset="0.2309" style="stop-color:#000000;stop-opacity:0.8"></stop> <stop offset="0.4058" style="stop-color:#000000;stop-opacity:0.4228"></stop> <stop offset="0.6408" style="stop-color:#000000;stop-opacity:0"></stop> </linearGradient> <path class="highlight" fill="url(#063e27d5-b6d4-4c34-89f0-2e1c6ac33332)" d="M120.1,125.2h-16.7l-8.6-18.1h7.3c3.3,0,6.2-0.4,8.7-1.2L120.1,125.2z" transform="translate(631.15488 -125.1)" stroke-width="0" stroke-linejoin="miter" stroke-miterlimit="2" opacity="0.7"></path> </g>
        <g id="path530122" aria-label="K" transform="translate(0 303.82588) translate(775.2373551999997 59.288000000000004) scale(0.83) translate(-755.72675 50.4)"> <path class="c1" d="M124.1,74.8l-16.9,24.7l12.3,25.7H103l-5.3-11.5l-0.6-1.4l-4.7-10.2l-2.1,23.1H75.9l4.5-50.4h14.4l-2,21.9 l7.7-11.3l7.2-10.6C107.7,74.8,124.1,74.8,124.1,74.8z" transform="translate(679.82675 -125.2)" stroke-width="0" stroke-linejoin="miter" stroke-miterlimit="2" fill="#5865f2" stroke="#5865f2"></path> <linearGradient id="00de4ab6-ec69-415c-a98f-039fb79ad19d" gradientUnits="userSpaceOnUse" x1="92.3248" y1="-496" x2="124.12479" y2="-496" gradientTransform="matrix(1 0 0 -1 0 -396)"> <stop offset="0.09073" style="stop-color:#000000;stop-opacity:0.8"></stop> <stop offset="0.3494" style="stop-color:#000000;stop-opacity:0"></stop> </linearGradient> <path class="highlight" fill="url(#00de4ab6-ec69-415c-a98f-039fb79ad19d)" d="M107.3,99.5l12.3,25.7H103l-5.3-11.5l-0.6-1.4l-4.7-10.2l0.5-5.4l7.7-11.3l7.2-10.6h16.4L107.3,99.5 z" transform="translate(679.82675 -125.2)" stroke-width="0" stroke-linejoin="miter" stroke-miterlimit="2" opacity="0.7"></path> </g>
                 </g>
      <image xlink:href="" id="icon" style="display: none;" x="0" y="0"></image>
    </g>
  </g>
</svg>